<?xml version="1.0" encoding="UTF-8"?> <svg xmlns="http://www.w3.org/2000/svg" width="70" height="70" viewBox="0 0 70 70" fill="none"> <circle cx="35" cy="35" r="35" fill="#00A8E8"></circle> <path fill-rule="evenodd" clip-rule="evenodd" d="M16.9355 21.4148H53.0645C54.1333 21.4159 54.9989 22.2816 55 23.3505V45.2886C54.9989 46.3576 54.1333 47.2233 53.0645 47.2244H39.7258L40.6473 50.4506H43.3871C43.743 50.4506 44.0323 50.7398 44.0323 51.0958V52.3863H42.7419V51.741H27.2581V52.3863H25.9677V51.0958C25.9677 50.7398 26.257 50.4506 26.6129 50.4506H29.3516L30.2731 47.2244H16.9355C15.8667 47.2233 15.0011 46.3576 15 45.2886V23.3505C15.0011 22.2816 15.8667 21.4159 16.9355 21.4148ZM31.6161 47.2244L30.6946 50.4506H39.3065L38.3849 47.2244H31.6161ZM53.0645 45.9339C53.4204 45.9339 53.7097 45.6446 53.7097 45.2886V42.8216H16.2903V45.2886C16.2903 45.6446 16.5796 45.9339 16.9355 45.9339H53.0645ZM16.2903 41.5311H35H53.7097V23.3505C53.7097 22.9946 53.4204 22.7053 53.0645 22.7053H16.9355C16.5796 22.7053 16.2903 22.9946 16.2903 23.3505V41.5311Z" fill="white"></path> <path d="M42.7419 52.3863V51.741H27.2581V52.3863H42.7419Z" fill="white"></path> <path d="M43.3737 33.1099V30.5737C43.3737 30.3833 43.2569 30.2101 43.0744 30.1292L35.289 26.6976C35.1497 26.6363 34.9888 26.6363 34.8504 26.6976L27.0649 30.1292C26.8816 30.2101 26.7648 30.3833 26.7648 30.5737C26.7648 30.7641 26.8816 30.9373 27.0649 31.0182L29.8789 32.2585V37.9272C29.8789 38.1977 30.1116 38.4175 30.398 38.4175H39.7405C40.0268 38.4175 40.2595 38.1977 40.2595 37.9272V32.2585L42.3357 31.3434V33.109C41.6203 33.3476 41.1921 34.0389 41.3201 34.7448C41.4481 35.4507 42.0969 35.9663 42.8547 35.9663C43.6125 35.9663 44.2613 35.4507 44.3893 34.7448C44.5173 34.0389 44.0891 33.3484 43.3737 33.1099ZM39.2215 37.437H30.917V32.716L34.8495 34.4498C34.9888 34.5111 35.1488 34.5111 35.2881 34.4498L39.2215 32.716V37.437ZM35.0692 33.4645L28.5113 30.5737L35.0692 27.6829L41.6272 30.5737L35.0692 33.4645ZM42.8547 34.9858C42.6445 34.9858 42.4559 34.8665 42.3755 34.6835C42.295 34.5005 42.34 34.2897 42.4879 34.1492C42.6358 34.0094 42.8599 33.967 43.0537 34.0429C43.2474 34.1189 43.3737 34.2979 43.3737 34.4956C43.3737 34.766 43.141 34.9858 42.8547 34.9858Z" fill="white"></path> </svg> 