<?xml version="1.0" encoding="UTF-8"?> <svg xmlns="http://www.w3.org/2000/svg" width="70" height="70" viewBox="0 0 70 70" fill="none"> <circle cx="35" cy="35" r="35" fill="#00A8E8"></circle> <path d="M48.0767 18.1501H47.2715V17.3448C47.2715 16.2915 46.4142 15.4341 45.36 15.4341H24.798C24.6459 15.4341 24.499 15.4935 24.3896 15.5997L20.1739 19.693C20.0604 19.8035 19.9968 19.9556 19.9968 20.1139V42.5391C19.9968 42.8631 20.2583 43.1246 20.5823 43.1246C20.9052 43.1246 21.1677 42.8621 21.1677 42.5391V20.7005L24.273 20.7088H24.2761C24.5678 20.7088 24.8428 20.5953 25.0501 20.389C25.2584 20.1827 25.373 19.9066 25.374 19.6128L25.3824 16.604H39.4338V22.681C39.4338 23.6582 40.2286 24.4531 41.2057 24.4531C42.1828 24.4531 42.9776 23.6582 42.9776 22.681V19.6649C42.9776 19.3409 42.7151 19.0794 42.3922 19.0794C42.0693 19.0794 41.8068 19.342 41.8068 19.6649V22.6831C41.8068 23.0144 41.537 23.2842 41.2057 23.2842C40.8745 23.2842 40.6047 23.0144 40.6047 22.6831V16.6061H45.361C45.7683 16.6061 46.1006 16.9374 46.1006 17.3458V26.0211C46.1006 26.3451 46.3621 26.6076 46.6861 26.6076C47.01 26.6076 47.2715 26.3451 47.2715 26.0211V19.3222H48.0767C48.484 19.3222 48.8163 19.6535 48.8163 20.0619V53.5293C48.8163 53.9367 48.4851 54.269 48.0767 54.269H24.623C24.2157 54.269 23.8834 53.9377 23.8834 53.5293V52.724H45.36C46.4131 52.724 47.2704 51.8666 47.2704 50.8133V28.7288C47.2704 28.4048 47.0079 28.1422 46.685 28.1422C46.3611 28.1422 46.0996 28.4048 46.0996 28.7288V50.8122C46.0996 51.2196 45.7673 51.5519 45.36 51.5519H21.9073C21.5 51.5519 21.1677 51.2196 21.1677 50.8122V45.2656C21.1677 44.9416 20.9052 44.679 20.5823 44.679C20.2583 44.679 19.9968 44.9416 19.9968 45.2656V50.8122C19.9968 51.8655 20.8541 52.7229 21.9073 52.7229H22.7125V53.5283C22.7125 54.5815 23.5698 55.439 24.623 55.439H48.0757C49.1288 55.439 49.9861 54.5815 49.9861 53.5283V20.0608C49.9872 19.0075 49.1299 18.1501 48.0767 18.1501ZM24.2032 19.5378L22.0229 19.5326L23.4719 18.1251L24.2084 17.4094L24.2032 19.5378Z" fill="white"></path> <path d="M34.4201 23.6523H32.8482C32.1805 23.6523 31.6367 24.1962 31.6367 24.864V26.6215C31.6367 26.6434 31.618 26.6621 31.5961 26.6621H29.8388C29.171 26.6621 28.6262 27.2059 28.6262 27.8737V29.4458C28.6262 30.1136 29.17 30.6575 29.8388 30.6575H31.595C31.6169 30.6575 31.6357 30.6762 31.6357 30.6981V32.4556C31.6357 33.1234 32.1794 33.6672 32.8472 33.6672H34.4191C35.0878 33.6672 35.6316 33.1234 35.6316 32.4556V30.6981C35.6316 30.6762 35.6493 30.6575 35.6722 30.6575H37.4296C38.0973 30.6575 38.6411 30.1136 38.6411 29.4458V27.8737C38.6411 27.2059 38.0973 26.6621 37.4296 26.6621H35.6722C35.6493 26.6621 35.6316 26.6434 35.6316 26.6215V24.864C35.6316 24.1962 35.0878 23.6523 34.4201 23.6523ZM35.6722 27.8331H37.4296C37.4525 27.8331 37.4702 27.8519 37.4702 27.8737V29.4458C37.4702 29.4677 37.4514 29.4865 37.4296 29.4865H35.6722C35.0045 29.4865 34.4607 30.0303 34.4607 30.6981V32.4556C34.4607 32.4775 34.443 32.4962 34.4201 32.4962H32.8482C32.8263 32.4962 32.8076 32.4785 32.8076 32.4556V30.6981C32.8076 30.0303 32.2638 29.4865 31.595 29.4865H29.8388C29.8158 29.4865 29.7981 29.4677 29.7981 29.4458V27.8737C29.7981 27.8519 29.8158 27.8331 29.8388 27.8331H31.595C32.2638 27.8331 32.8076 27.2893 32.8076 26.6215V24.864C32.8076 24.8421 32.8253 24.8233 32.8482 24.8233H34.4201C34.442 24.8233 34.4607 24.841 34.4607 24.864V26.6215C34.4607 27.2893 35.0045 27.8331 35.6722 27.8331Z" fill="white"></path> <path d="M31.5012 36.2603H24.7219C24.399 36.2603 24.1365 36.5227 24.1365 36.8466C24.1365 37.1705 24.399 37.4319 24.7219 37.4319H31.5023C31.8262 37.4319 32.0887 37.1705 32.0887 36.8466C32.0877 36.5227 31.8252 36.2603 31.5012 36.2603Z" fill="white"></path> <path d="M34.9919 37.4319H42.5463C42.8702 37.4319 43.1328 37.1705 43.1328 36.8466C43.1328 36.5237 42.8702 36.2603 42.5463 36.2603H34.9919C34.668 36.2603 34.4065 36.5227 34.4065 36.8466C34.4065 37.1694 34.668 37.4319 34.9919 37.4319Z" fill="white"></path> <path d="M31.5012 39.4219H24.7219C24.399 39.4219 24.1365 39.6843 24.1365 40.0082C24.1365 40.3311 24.399 40.5935 24.7219 40.5935H31.5023C31.8262 40.5935 32.0887 40.3311 32.0887 40.0082C32.0877 39.6843 31.8252 39.4219 31.5012 39.4219Z" fill="white"></path> <path d="M42.5454 39.4219H34.991C34.667 39.4219 34.4055 39.6843 34.4055 40.0082C34.4055 40.3311 34.668 40.5935 34.991 40.5935H42.5454C42.8693 40.5935 43.1318 40.3311 43.1318 40.0082C43.1318 39.6843 42.8693 39.4219 42.5454 39.4219Z" fill="white"></path> <path d="M31.5012 42.5852H24.7219C24.399 42.5852 24.1365 42.8477 24.1365 43.1705C24.1365 43.4944 24.399 43.7559 24.7219 43.7559H31.5023C31.8262 43.7559 32.0887 43.4934 32.0887 43.1705C32.0877 42.8477 31.8252 42.5852 31.5012 42.5852Z" fill="white"></path> <path d="M42.5454 42.5852H34.991C34.667 42.5852 34.4055 42.8477 34.4055 43.1705C34.4055 43.4944 34.668 43.7559 34.991 43.7559H42.5454C42.8693 43.7559 43.1318 43.4934 43.1318 43.1705C43.1318 42.8477 42.8693 42.5852 42.5454 42.5852Z" fill="white"></path> <path d="M31.5012 45.7468H24.7219C24.399 45.7468 24.1365 46.0092 24.1365 46.332C24.1365 46.6559 24.399 46.9172 24.7219 46.9172H31.5023C31.8262 46.9172 32.0887 46.6548 32.0887 46.332C32.0877 46.0092 31.8252 45.7468 31.5012 45.7468Z" fill="white"></path> <path d="M42.5454 45.7468H34.991C34.667 45.7468 34.4055 46.0092 34.4055 46.332C34.4055 46.6559 34.668 46.9172 34.991 46.9172H42.5454C42.8693 46.9172 43.1318 46.6548 43.1318 46.332C43.1318 46.0092 42.8693 45.7468 42.5454 45.7468Z" fill="white"></path> </svg> 