<?xml version="1.0" encoding="UTF-8"?> <svg xmlns="http://www.w3.org/2000/svg" width="70" height="70" viewBox="0 0 70 70" fill="none"> <circle cx="35" cy="35" r="35" fill="#00A8E8"></circle> <rect x="16" y="16" width="8.72973" height="8.72973" rx="2" fill="white"></rect> <rect x="16.5" y="36.0135" width="7.72973" height="7.72973" rx="1.5" stroke="white"></rect> <rect x="16.5" y="26.2567" width="7.72973" height="7.72973" rx="1.5" stroke="white"></rect> <rect x="54" y="54" width="8.72973" height="8.72973" rx="2" transform="rotate(-180 54 54)" fill="white"></rect> <rect x="26.2568" y="16.5" width="7.72973" height="7.72973" rx="1.5" stroke="white"></rect> <rect x="26.2568" y="36.0135" width="7.72973" height="7.72973" rx="1.5" stroke="white"></rect> <rect x="26.2568" y="26.2567" width="7.72973" height="7.72973" rx="1.5" stroke="white"></rect> <rect x="26.2568" y="45.7703" width="7.72973" height="7.72973" rx="1.5" stroke="white"></rect> <rect x="36.0134" y="16.5" width="7.72973" height="7.72973" rx="1.5" stroke="white"></rect> <rect x="36.0134" y="36.0135" width="7.72973" height="7.72973" rx="1.5" stroke="white"></rect> <rect x="36.0134" y="26.2567" width="7.72973" height="7.72973" rx="1.5" stroke="white"></rect> <rect x="36.0134" y="45.7703" width="7.72973" height="7.72973" rx="1.5" stroke="white"></rect> <rect x="45.7703" y="16.5" width="7.72973" height="7.72973" rx="1.5" stroke="white"></rect> <rect x="45.7703" y="36.0135" width="7.72973" height="7.72973" rx="1.5" stroke="white"></rect> <rect x="45.7703" y="26.2567" width="7.72973" height="7.72973" rx="1.5" stroke="white"></rect> <rect x="24.2297" y="53.5" width="7.72973" height="7.72973" rx="1.5" transform="rotate(-180 24.2297 53.5)" stroke="white"></rect> </svg> 