<?xml version="1.0" encoding="UTF-8"?> <svg xmlns="http://www.w3.org/2000/svg" width="70" height="70" viewBox="0 0 70 70" fill="none"> <circle cx="35" cy="35" r="35" fill="#00A8E8"></circle> <path d="M37.868 50.5077H52.0679C53.6834 50.5077 54.9979 49.1941 54.9979 47.5774V27.6838C54.9979 26.0681 53.6834 24.7534 52.0679 24.7534H44.5394C44.2154 24.7534 43.9529 25.0159 43.9529 25.3399C43.9529 25.6639 44.2154 25.9264 44.5394 25.9264H52.0679C53.0366 25.9264 53.8261 26.715 53.8261 27.6848V47.5795C53.8261 48.5483 53.0376 49.3379 52.0679 49.3379H37.2878C37.2858 49.3379 37.2837 49.3379 37.2816 49.3379C37.2795 49.3379 37.2774 49.3379 37.2753 49.3379H32.7205C32.7184 49.3379 32.7163 49.3379 32.7142 49.3379C32.7122 49.3379 32.7101 49.3379 32.709 49.3379H17.93C16.9603 49.3379 16.1718 48.5493 16.1718 47.5795V27.6838C16.1718 26.715 16.9603 25.9254 17.93 25.9254H27.6063V26.515C27.6063 26.7108 27.6146 26.9046 27.6292 27.0973H18.1643C17.7123 27.0973 17.3436 27.465 17.3436 27.9182V42.4511C17.3436 42.7751 17.606 43.0376 17.93 43.0376C18.2529 43.0376 18.5164 42.7751 18.5164 42.4511V28.2703H27.8146C28.3156 30.3537 29.6863 32.1006 31.5164 33.0924V34.406C31.5164 34.7133 31.3206 34.9862 31.0279 35.0841L25.3731 36.9863C23.542 37.6009 22.3119 39.3114 22.3119 41.2417V46.993H18.5153V45.1856C18.5153 44.8617 18.2529 44.5991 17.9289 44.5991C17.605 44.5991 17.3425 44.8617 17.3425 45.1856V47.3441C17.3425 47.7962 17.7102 48.1649 18.1633 48.1649H51.8325C52.2846 48.1649 52.6533 47.7972 52.6533 47.3441V27.9182C52.6533 27.4661 52.2856 27.0973 51.8325 27.0973H42.3729C42.3843 26.9285 42.3906 26.7587 42.3906 26.5889V20.0001C42.3906 18.0469 40.8021 16.4583 38.8492 16.4583H31.1467C29.1937 16.4583 27.6053 18.0469 27.6053 20.0001V24.7545H17.9289C16.3145 24.7545 15 26.0681 15 27.6838V47.5784C15 49.1941 16.3145 50.5088 17.93 50.5088H32.1299L37.868 50.5077ZM46.5152 46.992H23.4816V41.2407C23.4816 39.8145 24.3909 38.5509 25.7439 38.0957L27.0678 37.6509C26.9918 38.078 26.9605 38.5114 26.9772 38.9478C26.9928 39.3468 27.047 39.7427 27.1386 40.1302C25.8575 40.4667 24.9096 41.6344 24.9096 43.0199V44.9481C24.9096 45.494 25.3534 45.9377 25.8991 45.9377H26.447C26.771 45.9377 27.0334 45.6752 27.0334 45.3513C27.0334 45.0273 26.771 44.7648 26.447 44.7648H26.0825V43.0189C26.0825 42.0188 26.8959 41.2042 27.8959 41.2042C27.8969 41.2042 27.8969 41.2042 27.8969 41.2042C27.8979 41.2042 27.899 41.2042 27.899 41.2042C28.8989 41.2052 29.7124 42.0188 29.7124 43.0189V44.7648H29.3478C29.0239 44.7648 28.7614 45.0273 28.7614 45.3513C28.7614 45.6752 29.0239 45.9377 29.3478 45.9377H29.8947C30.4394 45.9377 30.8842 45.494 30.8842 44.9481V43.0199C30.8842 41.5209 29.7738 40.276 28.3333 40.0646C28.226 39.6854 28.1636 39.2958 28.149 38.903C28.1271 38.327 28.2063 37.7582 28.3823 37.2082L31.0123 36.3238L34.3193 39.627C34.7297 40.0375 35.3994 40.0375 35.8098 39.627L39.0835 36.356L41.9593 37.3228C42.1687 37.8707 42.276 38.4603 42.2708 39.0447C42.2656 39.5687 42.1687 40.0979 41.9896 40.5927C40.7001 40.7906 39.7095 41.9063 39.7095 43.2491C39.7095 44.7304 40.9157 45.9367 42.3989 45.9367C43.8811 45.9367 45.0883 44.7314 45.0883 43.2491C45.0883 42.0438 44.2894 41.0208 43.1926 40.6813C43.3509 40.1531 43.4363 39.602 43.4415 39.0551C43.4457 38.628 43.4009 38.1978 43.3113 37.7769L44.254 38.0936C45.607 38.5478 46.5163 39.8114 46.5163 41.2386V46.992H46.5152ZM37.9555 35.8269L35.063 38.7166L32.107 35.7633C32.4684 35.4154 32.6851 34.9299 32.6851 34.4049V33.6007C33.4048 33.8414 34.1735 33.9726 34.9714 33.9757C34.9807 33.9757 34.9891 33.9757 34.9974 33.9757C35.7952 33.9757 36.5733 33.8507 37.3097 33.609V34.4049C37.3108 34.9622 37.5545 35.4758 37.9555 35.8269ZM42.3968 41.7355H42.3979C43.2342 41.7355 43.9144 42.4157 43.9144 43.2501C43.9144 44.0856 43.2332 44.7658 42.3968 44.7658C41.5604 44.7658 40.8792 44.0866 40.8792 43.2501C40.8803 42.4157 41.5604 41.7365 42.3968 41.7355ZM42.2 28.2703H51.4815V46.993H47.687V41.2407C47.687 39.3104 46.4569 37.5999 44.6258 36.9852L38.971 35.0841C38.6784 34.9862 38.4825 34.7133 38.4825 34.406V33.109C39.1137 32.7715 39.6981 32.3392 40.2199 31.8194C41.2136 30.8277 41.8906 29.6037 42.2 28.2703ZM28.777 20.0001C28.777 18.6927 29.8395 17.6302 31.1467 17.6302H38.8492C40.1553 17.6302 41.2188 18.6927 41.2188 20.0001V23.5117C40.623 23.444 39.8897 23.2659 39.1367 22.8481C38.4732 22.4804 37.9003 21.9887 37.4326 21.3856C37.1316 20.998 36.5764 20.9064 36.1692 21.1762C35.3672 21.7085 34.5099 22.1585 33.6225 22.5158C32.0841 23.1356 30.4561 23.4773 28.776 23.5377V20.0001H28.777ZM28.777 24.7118C30.6082 24.6503 32.383 24.2784 34.061 23.6034C34.9568 23.2429 35.8223 22.795 36.6389 22.27C37.1795 22.9242 37.8274 23.4627 38.5679 23.8732C39.5356 24.4086 40.4772 24.6201 41.2188 24.6899V26.5889C41.2188 28.2525 40.5699 29.8141 39.3918 30.9881C38.8856 31.4923 38.3086 31.8986 37.6836 32.1975C37.6576 32.2069 37.6326 32.2194 37.6086 32.2329C36.7952 32.609 35.9015 32.8069 34.9755 32.8038C31.557 32.7923 28.776 29.9703 28.776 26.515C28.777 26.5077 28.777 24.718 28.777 24.7118Z" fill="white"></path> </svg> 