<?xml version="1.0" encoding="UTF-8"?> <svg xmlns="http://www.w3.org/2000/svg" width="70" height="70" viewBox="0 0 70 70" fill="none"> <circle cx="35" cy="35" r="35" fill="#00A8E8"></circle> <path d="M54.5639 18.9089H15.4379C14.6461 18.9089 14.002 19.5532 14.002 20.3451V25.3984C14.002 26.1936 15.2323 26.1936 15.2323 25.3984V20.3451C15.2323 20.2313 15.3242 20.1395 15.4379 20.1395H54.5639C54.6776 20.1395 54.7695 20.2313 54.7695 20.3451V50.3479C54.7695 50.4605 54.6776 50.5535 54.5639 50.5535H46.6796V49.2727H52.8676C53.2077 49.2727 53.4833 48.997 53.4833 48.6569V42.2144C53.4833 41.4192 52.253 41.4192 52.253 42.2144V48.0422H46.6807V45.312C46.7004 45.3142 46.7212 45.3153 46.7398 45.3175C47.2505 45.3624 47.886 45.4181 48.3256 44.9773C48.7653 44.5365 48.7095 43.9011 48.6646 43.3903C48.6165 42.8412 48.669 42.6913 49.0901 42.3413C50.175 41.4389 50.1958 40.472 49.0901 39.5543C48.669 39.2032 48.6176 39.0534 48.6646 38.5054C48.785 37.1294 48.143 36.4545 46.7398 36.5781C46.1919 36.6262 46.0442 36.5748 45.6942 36.1526C44.7942 35.0654 43.8274 35.0446 42.9098 36.1526C42.5609 36.5748 42.4122 36.6262 41.8653 36.5781C40.4884 36.4578 39.8169 37.1042 39.9394 38.5054C39.9875 39.0534 39.9361 39.2043 39.5139 39.5543C38.429 40.4567 38.4082 41.4225 39.5139 42.3413C39.935 42.6913 39.9864 42.8412 39.9394 43.3903C39.8103 44.8647 40.5135 45.4346 41.9233 45.312V48.0422H17.7489V22.6508H52.2519V38.9341C52.2519 39.7293 53.4823 39.7293 53.4823 38.9341V22.035C53.4823 21.6948 53.2066 21.4192 52.8665 21.4192H17.1331C16.793 21.4192 16.5174 21.6948 16.5174 22.035V48.6569C16.5174 48.997 16.793 49.2727 17.1331 49.2727H41.9222V50.5535H15.4379C15.3242 50.5535 15.2323 50.4616 15.2323 50.3479V28.5146C15.2323 27.7195 14.002 27.7195 14.002 28.5146V50.3479C14.002 51.1387 14.6461 51.784 15.4379 51.784H41.9222V54.5688C42.0097 55.0742 42.3017 55.2601 42.7971 55.1267L44.3009 54.4266L45.8047 55.1267C46.1766 55.2995 46.6796 55.026 46.6796 54.5688V51.784H54.5639C55.3557 51.784 55.9999 51.1398 55.9999 50.3479V20.3451C55.9988 19.5532 55.3546 18.9089 54.5639 18.9089ZM41.756 44.0914C41.1402 44.1461 41.1107 44.1132 41.1643 43.4974C41.2463 42.5524 41.0298 42.0011 40.3003 41.3952C39.8005 40.9795 39.8005 40.915 40.3003 40.5004C41.0298 39.8934 41.2474 39.3421 41.1643 38.3982C41.1107 37.7824 41.1402 37.7495 41.756 37.8042C42.7009 37.8874 43.251 37.6686 43.8569 36.938C44.2703 36.4392 44.3337 36.4392 44.7471 36.938C45.353 37.6686 45.9031 37.8874 46.8481 37.8042C47.4638 37.7495 47.4933 37.7824 47.4397 38.3982C47.3577 39.3432 47.5743 39.8945 48.3037 40.5004C48.8025 40.915 48.8035 40.9806 48.3037 41.3952C47.5743 42.0022 47.3566 42.5524 47.4397 43.4974C47.4933 44.1132 47.4638 44.1461 46.8481 44.0925C46.4609 44.0586 46.0234 44.0203 45.6374 44.18C45.2644 44.3353 45.0009 44.6525 44.7471 44.9588C44.6279 45.1031 44.4092 45.3667 44.302 45.4138C44.1948 45.3667 43.9761 45.1031 43.8569 44.9588C43.6032 44.6525 43.3407 44.3353 42.9666 44.18C42.5675 44.0586 42.1639 44.029 41.756 44.0914ZM44.5601 53.1907C44.3961 53.1141 44.2058 53.1141 44.0406 53.1907L43.1515 53.6041V46.0285C43.4435 46.3501 43.8033 46.6476 44.2998 46.6476C44.7963 46.6476 45.1562 46.3501 45.4482 46.0285V53.6041L44.5601 53.1907Z" fill="white"></path> <path d="M21.9791 27.8003H43.1864C43.9815 27.8003 43.9815 26.5698 43.1864 26.5698H21.9791C21.184 26.5698 21.184 27.8003 21.9791 27.8003Z" fill="white"></path> <path d="M48.6362 30.9278C48.6362 30.5886 48.3606 30.3118 48.0204 30.3118H21.9791C21.184 30.3118 21.184 31.5427 21.9791 31.5427H48.0204C48.3606 31.5427 48.6362 31.2681 48.6362 30.9278Z" fill="white"></path> <path d="M37.39 34.6694C37.39 34.3293 37.1144 34.0537 36.7742 34.0537H21.9791C21.184 34.0537 21.184 35.2839 21.9791 35.2839H36.7742C37.1154 35.285 37.39 35.0095 37.39 34.6694Z" fill="white"></path> <path d="M29.3122 43.2448C28.9765 43.2448 28.6418 43.2459 28.3061 43.2459C27.6608 43.2459 27.3054 43.0742 27.1741 42.3907C27.0538 41.7652 26.1527 41.845 25.9875 42.3907C25.9142 42.6324 25.5457 43.3224 25.223 43.2666C25.0524 43.2371 24.977 42.9736 24.9146 42.8369C24.791 42.5711 24.7025 42.2901 24.6259 42.008C24.3022 40.816 24.2366 39.5716 24.0342 38.3567C23.9161 37.6525 22.8432 37.8515 22.8257 38.5207C22.771 40.6509 22.4222 42.7516 21.6643 44.7484C21.3832 45.4887 22.572 45.8091 22.8509 45.0753C23.144 44.3055 23.3758 43.517 23.5563 42.7166C23.6525 43.0086 23.7674 43.294 23.9085 43.5728C24.2683 44.2825 25.001 44.7024 25.7841 44.3864C26.0641 44.2738 26.3189 44.0769 26.5365 43.8374C27.1184 44.5089 27.9845 44.4783 28.7928 44.4772C30.0111 44.475 31.2283 44.4728 32.4467 44.4695C33.2385 44.4673 33.2396 43.2371 32.4467 43.2393C31.4 43.2404 30.3556 43.2426 29.3122 43.2448Z" fill="white"></path> <path d="M44.301 43.3496C45.6265 43.3496 46.7038 42.2714 46.7038 40.9471C46.7038 39.6229 45.6254 38.5447 44.301 38.5447C42.9766 38.5447 41.8982 39.6229 41.8982 40.9471C41.8982 42.2714 42.9766 43.3496 44.301 43.3496ZM44.301 39.7749C44.9474 39.7749 45.4734 40.3009 45.4734 40.9471C45.4734 41.5934 44.9474 42.1194 44.301 42.1194C43.6546 42.1194 43.1286 41.5934 43.1286 40.9471C43.1286 40.2998 43.6546 39.7749 44.301 39.7749Z" fill="white"></path> </svg> 