<?xml version="1.0" encoding="UTF-8"?> <svg xmlns="http://www.w3.org/2000/svg" width="753" height="540" viewBox="0 0 753 540" fill="none"> <g opacity="0.05"> <path d="M39.0186 0L75.3194 102.322L111.426 0H149.668V141.08H120.453V102.516L123.365 35.9483L85.2196 141.08H65.2251L27.1771 36.0452L30.0889 102.516V141.08H0.970611V0H39.0186Z" fill="white"></path> <path d="M260.124 79.939H204.217V117.728H269.83V141.08H175.098V0H269.636V23.5457H204.217V57.1685H260.124V79.939Z" fill="white"></path> <path d="M417.945 175.769H391.059V141.08H305.84V175.672H278.274L276.721 117.728H287.398C293.157 112.948 297.589 105.939 300.695 96.702C303.866 87.4 306.001 75.9017 307.101 62.2071L311.178 0H403.774V117.728H420.275L417.945 175.769ZM320.787 117.728H374.656V23.5457H338.84L336.414 60.6567C334.473 85.5266 329.264 104.551 320.787 117.728Z" fill="white"></path> <path d="M85.7049 198.442H114.92V339.523H85.7049V245.825L29.1183 339.523H0V198.442H29.1183V292.334L85.7049 198.442Z" fill="white"></path> <path d="M255.174 339.523H226.055V279.06H169.275V339.523H140.156V198.442H169.275V255.611H226.055V198.442H255.174V339.523Z" fill="white"></path> <path d="M280.701 339.523V198.442H330.202C347.349 198.442 360.355 201.737 369.22 208.326C378.085 214.85 382.518 224.443 382.518 237.104C382.518 244.016 380.738 250.12 377.179 255.417C373.621 260.65 368.67 264.493 362.329 266.948C369.576 268.757 375.271 272.406 379.412 277.897C383.618 283.388 385.721 290.106 385.721 298.051C385.721 311.617 381.385 321.888 372.715 328.864C364.044 335.841 351.685 339.394 335.637 339.523H280.701ZM309.819 278.091V316.171H334.764C341.623 316.171 346.961 314.556 350.779 311.326C354.661 308.032 356.602 303.51 356.602 297.761C356.602 284.841 349.905 278.285 336.511 278.091H309.819ZM309.819 257.549H331.367C346.055 257.291 353.399 251.444 353.399 240.011C353.399 233.616 351.523 229.029 347.77 226.252C344.082 223.409 338.226 221.988 330.202 221.988H309.819V257.549Z" fill="white"></path> <path d="M492.682 278.382H436.775V316.171H502.388V339.523H407.657V198.442H502.194V221.988H436.775V255.611H492.682V278.382Z" fill="white"></path> <path d="M630.412 292.528C629.312 307.709 623.682 319.659 613.523 328.38C603.429 337.1 590.099 341.461 573.534 341.461C555.416 341.461 541.148 335.388 530.73 323.244C520.377 311.035 515.2 294.305 515.2 273.052V264.428C515.2 250.863 517.594 238.913 522.383 228.577C527.171 218.242 533.998 210.328 542.863 204.838C551.792 199.282 562.146 196.505 573.922 196.505C590.229 196.505 603.364 200.865 613.329 209.586C623.294 218.306 629.053 230.547 630.606 246.309H601.488C600.776 237.201 598.22 230.612 593.82 226.542C589.484 222.408 582.852 220.341 573.922 220.341C564.216 220.341 556.937 223.829 552.084 230.806C547.295 237.718 544.836 248.473 544.707 263.072V273.73C544.707 288.975 547.004 300.118 551.598 307.16C556.257 314.201 563.569 317.721 573.534 317.721C582.528 317.721 589.226 315.686 593.626 311.617C598.091 307.483 600.646 301.12 601.294 292.528H630.412Z" fill="white"></path> <path d="M753 221.988H709.711V339.523H680.592V221.988H637.886V198.442H753V221.988Z" fill="white"></path> <path d="M93.664 420.431H30.2831V537.965H1.16473V396.885H93.664V420.431Z" fill="white"></path> <path d="M140.933 488.258V537.965H111.814V396.885H166.945C177.557 396.885 186.875 398.823 194.899 402.699C202.987 406.575 209.199 412.098 213.534 419.268C217.87 426.374 220.038 434.481 220.038 443.589C220.038 457.413 215.282 468.329 205.77 476.34C196.322 484.285 183.219 488.258 166.46 488.258H140.933ZM140.933 464.712H166.945C174.645 464.712 180.501 462.903 184.513 459.286C188.59 455.668 190.628 450.501 190.628 443.783C190.628 436.871 188.59 431.283 184.513 427.02C180.437 422.756 174.807 420.56 167.625 420.431H140.933V464.712Z" fill="white"></path> <path d="M293.125 463.549L318.846 396.885H350.294L300.889 513.257L296.91 520.912C289.598 533.637 278.404 540 263.327 540L253.135 539.612L252.844 516.261C254.397 516.519 256.921 516.648 260.415 516.648C264.491 516.648 267.759 515.938 270.218 514.516C272.742 513.095 274.845 510.479 276.527 506.668L280.118 497.463L230.52 396.885H261.871L293.125 463.549Z" fill="white"></path> <path d="M480.841 537.965H451.625V420.431H395.039V537.965H365.92V396.885H480.841V537.965Z" fill="white"></path> <path d="M621.579 537.965H592.364V420.431H535.777V537.965H506.659V396.885H621.579V537.965Z" fill="white"></path> </g> </svg> 